<?xml version="1.0" encoding="UTF-8"?>
<!DOCTYPE svg PUBLIC "-//W3C//DTD SVG 1.1//EN" "http://www.w3.org/Graphics/SVG/1.1/DTD/svg11.dtd">
<svg version="1.1" xmlns="http://www.w3.org/2000/svg" xmlns:xlink="http://www.w3.org/1999/xlink" x="0" y="0" width="790" height="128" viewBox="0, 0, 790, 128">
  <g id="Finish_Elements_Layer">
    <g>
      <path d="M207.846,4.049 L207.846,13.793 L143.166,13.793 L143.166,57.137 L200.622,57.137 L200.622,66.881 L143.166,66.881 L143.166,124 L131.742,124 L131.742,4.049 L207.846,4.049 z" fill="#FFFFFF"/>
      <path d="M267.4,38.488 C272.496,40.953 276.779,44.258 280.253,48.4 C283.723,52.545 286.356,57.388 288.149,62.932 C289.939,68.476 290.837,74.384 290.837,80.656 C290.837,86.929 289.939,92.836 288.149,98.381 C286.356,103.924 283.723,108.77 280.253,112.912 C276.779,117.057 272.496,120.334 267.4,122.74 C262.302,125.147 256.452,126.352 249.844,126.352 C243.235,126.352 237.383,125.147 232.288,122.74 C227.189,120.334 222.906,117.056 219.435,112.912 C215.962,108.769 213.33,103.924 211.539,98.381 C209.746,92.836 208.851,86.93 208.851,80.656 C208.851,74.385 209.747,68.476 211.539,62.932 C213.329,57.388 215.962,52.544 219.435,48.4 C222.906,44.257 227.189,40.953 232.288,38.488 C237.383,36.026 243.234,34.793 249.844,34.793 C256.452,34.793 262.302,36.026 267.4,38.488 z M236.572,46.889 C232.763,49.018 229.6,51.819 227.081,55.289 C224.56,58.762 222.655,62.709 221.368,67.133 C220.08,71.559 219.436,76.066 219.436,80.656 C219.436,85.25 220.08,89.758 221.368,94.18 C222.655,98.606 224.56,102.554 227.081,106.024 C229.601,109.498 232.764,112.298 236.572,114.423 C240.379,116.552 244.804,117.616 249.844,117.616 C254.884,117.616 259.307,116.552 263.115,114.423 C266.922,112.298 270.088,109.497 272.607,106.024 C275.128,102.554 277.031,98.606 278.319,94.18 C279.605,89.757 280.252,85.249 280.252,80.656 C280.252,76.065 279.606,71.558 278.319,67.133 C277.031,62.709 275.128,58.762 272.607,55.289 C270.087,51.818 266.921,49.018 263.115,46.889 C259.306,44.762 254.884,43.697 249.844,43.697 C244.804,43.697 240.378,44.762 236.572,46.889 z" fill="#FFFFFF"/>
      <path d="M313.012,37.312 L313.012,57.64 L313.348,57.64 C316.036,50.583 320.207,45.153 325.864,41.344 C331.518,37.537 338.267,35.8 346.108,36.136 L346.108,46.72 C341.292,46.497 336.923,47.14 333.004,48.652 C329.082,50.164 325.695,52.322 322.84,55.121 C319.984,57.922 317.771,61.252 316.203,65.117 C314.634,68.98 313.851,73.209 313.851,77.801 L313.851,124 L303.267,124 L303.267,37.312 L313.012,37.312 z" fill="#FFFFFF"/>
      <path d="M365.93,37.312 L365.93,51.928 L366.434,51.928 C369.232,46.552 372.902,42.352 377.438,39.327 C381.974,36.304 387.77,34.792 394.826,34.792 C400.538,34.792 405.718,36.193 410.366,38.991 C415.012,41.792 418.121,46.048 419.69,51.759 C422.265,46.048 426.074,41.792 431.114,38.991 C436.154,36.193 441.53,34.792 447.242,34.792 C466.394,34.792 475.971,44.929 475.971,65.2 L475.971,124 L465.386,124 L465.386,65.705 C465.386,58.538 463.873,53.078 460.85,49.324 C457.826,45.573 452.505,43.696 444.89,43.696 C440.296,43.696 436.49,44.565 433.466,46.3 C430.442,48.037 428.031,50.361 426.241,53.272 C424.448,56.185 423.188,59.517 422.462,63.268 C421.732,67.022 421.369,70.912 421.369,74.944 L421.369,124 L410.786,124 L410.786,65.201 C410.786,62.289 410.476,59.517 409.862,56.885 C409.245,54.254 408.237,51.957 406.839,49.996 C405.437,48.038 403.563,46.498 401.21,45.377 C398.858,44.258 396.003,43.696 392.643,43.696 C388.162,43.696 384.269,44.509 380.967,46.133 C377.661,47.758 374.974,49.996 372.903,52.853 C370.83,55.709 369.291,59.069 368.283,62.933 C367.275,66.797 366.771,71.026 366.771,75.618 L366.771,124 L356.186,124 L356.186,37.312 L365.93,37.312 z" fill="#FFFFFF"/>
      <path d="M498.312,50.752 C500.103,47.057 502.539,44.033 505.621,41.681 C508.7,39.328 512.311,37.594 516.457,36.473 C520.599,35.354 525.192,34.793 530.232,34.793 C534.039,34.793 537.847,35.157 541.657,35.885 C545.463,36.614 548.881,37.985 551.905,40 C554.928,42.017 557.39,44.846 559.297,48.484 C561.2,52.125 562.152,56.858 562.152,62.68 L562.152,108.712 C562.152,112.97 564.223,115.096 568.369,115.096 C569.599,115.096 570.721,114.872 571.728,114.423 L571.728,123.327 C570.495,123.554 569.403,123.722 568.453,123.831 C567.5,123.944 566.295,123.999 564.841,123.999 C562.153,123.999 559.995,123.638 558.373,122.907 C556.748,122.18 555.488,121.143 554.593,119.8 C553.696,118.456 553.108,116.86 552.829,115.012 C552.548,113.163 552.409,111.121 552.409,108.88 L552.073,108.88 C550.167,111.681 548.235,114.171 546.276,116.356 C544.316,118.541 542.131,120.362 539.724,121.816 C537.315,123.273 534.572,124.391 531.493,125.175 C528.411,125.958 524.744,126.352 520.489,126.352 C516.457,126.352 512.677,125.874 509.148,124.923 C505.621,123.974 502.539,122.462 499.909,120.388 C497.276,118.317 495.205,115.684 493.692,112.492 C492.18,109.301 491.424,105.52 491.424,101.152 C491.424,95.104 492.768,90.374 495.456,86.957 C498.144,83.541 501.698,80.937 506.124,79.145 C510.547,77.354 515.532,76.094 521.076,75.365 C526.62,74.637 532.248,73.937 537.96,73.265 C540.199,73.041 542.16,72.76 543.84,72.424 C545.52,72.088 546.919,71.5 548.04,70.66 C549.158,69.82 550.027,68.674 550.644,67.217 C551.258,65.762 551.568,63.857 551.568,61.504 C551.568,57.922 550.98,54.982 549.804,52.685 C548.628,50.391 547.003,48.569 544.932,47.225 C542.859,45.881 540.452,44.957 537.708,44.454 C534.962,43.95 532.022,43.697 528.888,43.697 C522.168,43.697 516.679,45.294 512.424,48.485 C508.166,51.676 505.927,56.801 505.704,63.857 L495.12,63.857 C495.457,58.816 496.519,54.449 498.312,50.752 z M551.232,76.625 C550.56,77.858 549.271,78.754 547.369,79.313 C545.463,79.875 543.783,80.266 542.329,80.489 C537.848,81.274 533.227,81.975 528.469,82.589 C523.707,83.206 519.368,84.13 515.449,85.361 C511.527,86.594 508.308,88.359 505.789,90.653 C503.268,92.95 502.009,96.226 502.009,100.481 C502.009,103.169 502.539,105.549 503.605,107.622 C504.668,109.695 506.096,111.485 507.889,112.997 C509.679,114.509 511.753,115.659 514.105,116.441 C516.458,117.226 518.865,117.618 521.33,117.618 C525.361,117.618 529.226,117.003 532.922,115.769 C536.618,114.538 539.836,112.745 542.582,110.393 C545.325,108.041 547.509,105.185 549.134,101.825 C550.756,98.466 551.57,94.659 551.57,90.401 L551.57,76.625 L551.232,76.625 z" fill="#FFFFFF"/>
      <path d="M617.759,37.312 L617.759,46.216 L600.119,46.216 L600.119,104.68 C600.119,108.153 600.595,110.869 601.547,112.827 C602.497,114.788 604.878,115.88 608.688,116.103 C611.711,116.103 614.736,115.935 617.759,115.599 L617.759,124.502 C616.19,124.502 614.622,124.558 613.056,124.67 C611.486,124.781 609.918,124.838 608.352,124.838 C601.295,124.838 596.366,123.469 593.568,120.723 C590.767,117.98 589.423,112.911 589.536,105.519 L589.536,46.217 L574.416,46.217 L574.416,37.313 L589.536,37.313 L589.536,11.273 L600.12,11.273 L600.12,37.313 L617.759,37.313 z" fill="#FFFFFF"/>
      <path d="M645.478,105.353 L645.478,124 L626.831,124 L626.831,105.353 L645.478,105.353 z" fill="#FFFFFF" opacity="0.5"/>
      <path d="M702.154,36.179 L702.154,99.524 C702.154,104.035 701.703,107.93 700.801,111.21 C699.898,114.49 698.443,117.196 696.435,119.327 C694.424,121.461 691.801,123.059 688.563,124.124 C685.323,125.188 681.325,125.724 676.57,125.724 C671.568,125.724 667.468,124.882 664.27,123.203 C661.072,121.524 658.57,119.308 656.767,116.56 C654.962,113.814 653.733,110.637 653.078,107.028 C652.421,103.421 652.094,99.691 652.094,95.836 L660.458,95.836 C660.538,97.723 660.661,99.977 660.827,102.601 C660.99,105.226 661.564,107.727 662.549,110.104 C663.533,112.483 665.152,114.512 667.407,116.192 C669.661,117.874 672.962,118.713 677.308,118.713 C680.587,118.713 683.293,118.283 685.426,117.422 C687.557,116.561 689.238,115.208 690.469,113.363 C691.699,111.517 692.56,109.162 693.052,106.291 C693.544,103.421 693.79,99.977 693.79,95.959 L693.79,36.179 L702.154,36.179 z" fill="#FFFFFF" opacity="0.5"/>
      <path d="M725.893,106.412 C727.37,109.446 729.399,111.865 731.982,113.668 C734.565,115.473 737.619,116.765 741.145,117.543 C744.67,118.323 748.443,118.711 752.461,118.711 C754.756,118.711 757.258,118.385 759.964,117.728 C762.67,117.073 765.192,116.028 767.528,114.591 C769.865,113.157 771.812,111.313 773.371,109.057 C774.928,106.802 775.708,104.075 775.708,100.877 C775.708,98.416 775.154,96.285 774.047,94.481 C772.941,92.678 771.505,91.161 769.742,89.93 C767.977,88.7 766.031,87.697 763.899,86.916 C761.766,86.138 759.675,85.502 757.627,85.01 L738.069,80.213 C735.527,79.557 733.046,78.736 730.628,77.752 C728.209,76.769 726.097,75.458 724.294,73.816 C722.489,72.177 721.034,70.169 719.928,67.789 C718.821,65.412 718.267,62.5 718.267,59.057 C718.267,56.926 718.676,54.425 719.497,51.554 C720.315,48.684 721.852,45.979 724.109,43.436 C726.363,40.895 729.46,38.743 733.395,36.979 C737.332,35.216 742.374,34.334 748.524,34.334 C752.87,34.334 757.011,34.908 760.948,36.056 C764.884,37.205 768.328,38.927 771.279,41.222 C774.231,43.518 776.588,46.368 778.352,49.77 C780.114,53.174 780.997,57.131 780.997,61.64 L772.633,61.64 C772.468,58.279 771.71,55.348 770.358,52.846 C769.004,50.345 767.241,48.254 765.069,46.573 C762.895,44.893 760.395,43.621 757.566,42.76 C754.737,41.9 751.763,41.468 748.648,41.468 C745.777,41.468 743.009,41.777 740.346,42.392 C737.68,43.006 735.343,43.99 733.334,45.343 C731.324,46.697 729.706,48.48 728.476,50.694 C727.247,52.908 726.631,55.656 726.631,58.935 C726.631,60.986 726.979,62.769 727.676,64.286 C728.372,65.805 729.337,67.096 730.567,68.16 C731.797,69.226 733.212,70.088 734.811,70.744 C736.41,71.4 738.111,71.933 739.915,72.342 L761.316,77.631 C764.431,78.452 767.363,79.457 770.111,80.645 C772.857,81.834 775.277,83.311 777.368,85.073 C779.459,86.839 781.098,88.991 782.288,91.531 C783.476,94.074 784.071,97.149 784.071,100.757 C784.071,101.74 783.967,103.054 783.764,104.693 C783.558,106.334 783.066,108.076 782.287,109.921 C781.507,111.766 780.4,113.632 778.966,115.518 C777.53,117.405 775.563,119.106 773.063,120.622 C770.56,122.141 767.466,123.37 763.776,124.312 C760.087,125.253 755.659,125.726 750.493,125.726 C745.327,125.726 740.529,125.13 736.101,123.943 C731.673,122.756 727.901,120.929 724.786,118.468 C721.669,116.009 719.269,112.853 717.59,108.997 C715.908,105.143 715.192,100.511 715.438,95.099 L723.802,95.099 C723.719,99.605 724.417,103.379 725.893,106.412 z" fill="#FFFFFF" opacity="0.5"/>
    </g>
  </g>
  <g id="tools">
    <path d="M110,124 L-0,124 L-0,4 L110,4 L110,124 z M23.243,33.999 L23.243,98.259 L31.794,98.259 L31.794,68.829 L61.314,68.829 L61.314,61.629 L31.794,61.629 L31.794,41.199 L65.454,41.199 L65.454,33.999 L23.243,33.999 z M81.203,51.729 L81.203,37.779 L73.554,37.779 L73.554,51.729 L65.633,51.729 L65.633,58.479 L73.554,58.479 L73.554,88.089 C73.554,90.249 73.763,91.989 74.184,93.309 C74.603,94.629 75.248,95.649 76.119,96.37 C76.988,97.09 78.129,97.585 79.539,97.854 C80.948,98.125 82.644,98.259 84.624,98.259 L90.475,98.259 L90.475,91.509 L86.964,91.509 C85.764,91.509 84.789,91.464 84.039,91.374 C83.288,91.284 82.703,91.09 82.284,90.789 C81.863,90.489 81.578,90.068 81.43,89.528 C81.279,88.989 81.204,88.268 81.204,87.369 L81.204,58.479 L90.475,58.479 L90.475,51.729 L81.203,51.729 z" fill="#FFFFFF"/>
  </g>
</svg>
